<svg width="32" height="32" viewBox="0 0 32 32" fill="none" xmlns="http://www.w3.org/2000/svg">
  <!-- Sun -->
  <circle cx="16" cy="11" r="5" fill="#F59E0B" />
  <circle cx="16" cy="11" r="7" stroke="#F59E0B" stroke-width="1" />
  
  <!-- Cloud -->
  <path d="M26 20.5C26 23.5376 23.5376 26 20.5 26H10C6.96243 26 4.5 23.5376 4.5 20.5C4.5 17.4624 6.96243 15 10 15C10.0691 15 10.1379 15.0014 10.2065 15.0042C10.0724 14.3502 10 13.6737 10 12.9808C10 8.0345 13.8345 4 18.5 4C23.1655 4 27 8.0345 27 12.9808C27 14.2192 26.7631 15.3977 26.3301 16.4808C26.7631 17.5638 27 18.7423 27 19.9808C27 21.5722 26.6336 23.0646 26 24.3748" stroke="#3B82F6" stroke-width="2" stroke-linecap="round" />
</svg> 